<svg xmlns="http://www.w3.org/2000/svg" xmlns:xlink="http://www.w3.org/1999/xlink" viewBox="0,0,256,256" width="100px" height="100px"><g fill="#ffffff" fill-rule="nonzero" stroke="none" stroke-width="1" stroke-linecap="butt" stroke-linejoin="miter" stroke-miterlimit="10" stroke-dasharray="" stroke-dashoffset="0" font-family="none" font-weight="none" font-size="none" text-anchor="none" style="mix-blend-mode: normal"><g transform="scale(2.56,2.56)"><path d="M64.99414,5.98633c-0.17108,-0.00223 -0.33987,0.03946 -0.49023,0.12109c-7.58325,1.2053 -11.39056,5.66615 -13.07031,9.81445c-1.60666,3.9678 -1.43165,7.42091 -1.40625,7.85156c-0.06902,0.29689 0.00112,0.60904 0.1905,0.84787c0.18939,0.23883 0.47735,0.37825 0.78215,0.37869h0.01758c0.04118,-0.00072 0.08227,-0.00398 0.12305,-0.00977c0.09906,-0.01158 0.19584,-0.03791 0.28711,-0.07812c7.63471,-1.18704 11.45325,-5.67169 13.13867,-9.83398c1.58724,-3.91983 1.43242,-7.29156 1.4043,-7.79492c0.14682,-0.49546 -0.108,-1.0212 -0.58789,-1.21289c-0.02373,-0.01004 -0.04783,-0.01916 -0.07227,-0.02734c-0.10172,-0.03582 -0.20857,-0.05494 -0.31641,-0.05664zM63.94727,8.31055c-0.01428,1.22696 -0.14147,3.31372 -1.23633,6.01758c-1.42088,3.50898 -4.38855,7.07471 -10.6582,8.36133c0.01428,-1.22696 0.14147,-3.31372 1.23633,-6.01758c1.42088,-3.50898 4.38855,-7.07471 10.6582,-8.36133zM35.5,25c-10.07017,0 -19.5,8.59753 -19.5,20.5c0,9.15156 2.05642,18.17343 5.23242,24.45117c2.73862,5.41356 5.90241,9.38985 8.93945,12.03711c3.03704,2.64726 5.92188,4.01172 8.32813,4.01172c2.47222,0 4.30985,-0.82812 6.24023,-1.56641c1.93038,-0.73829 4.00057,-1.43359 7.25977,-1.43359c3.2592,0 5.32938,0.6953 7.25977,1.43359c1.93038,0.73829 3.76801,1.56641 6.24023,1.56641c2.40625,0 5.29109,-1.36446 8.32813,-4.01172c3.03704,-2.64726 6.20083,-6.62355 8.93945,-12.03711c0.41353,-0.81872 0.78965,-1.67494 1.15625,-2.5625c0.20449,-0.4953 -0.01772,-1.06376 -0.50391,-1.28906c-5.42525,-2.51409 -9.41992,-9.03509 -9.41992,-16.78711c0,-7.26177 3.58575,-13.45532 8.49805,-16.26953c0.26274,-0.15054 0.44313,-0.41201 0.49057,-0.71108c0.04744,-0.29907 -0.04317,-0.60353 -0.24643,-0.82799c-3.67365,-4.06406 -8.8859,-6.50391 -14.24219,-6.50391c-3.7381,0 -6.61621,1.34628 -9.16211,2.60352c-2.5459,1.25723 -4.75275,2.39648 -7.33789,2.39648c-2.58514,0 -4.79199,-1.13925 -7.33789,-2.39648c-2.5459,-1.25723 -5.42401,-2.60352 -9.16211,-2.60352zM35.5,27c3.2619,0 5.75879,1.15372 8.27539,2.39648c2.5166,1.24277 5.05975,2.60352 8.22461,2.60352c3.16486,0 5.70801,-1.36075 8.22461,-2.60352c2.5166,-1.24277 5.01349,-2.39648 8.27539,-2.39648c4.39977,0 8.71568,1.93854 11.96484,5.12891c-5.02837,3.45681 -8.46484,9.79885 -8.46484,17.18359c0,8.02957 3.96842,14.87513 9.75195,18.0332c-0.25194,0.58362 -0.50213,1.17371 -0.76953,1.70313c-2.63638,5.21144 -5.66009,8.98515 -8.4668,11.43164c-2.80671,2.44649 -5.42187,3.51953 -7.01562,3.51953c-2.02778,0 -3.53377,-0.67188 -5.52539,-1.43359c-1.99162,-0.76171 -4.42181,-1.56641 -7.97461,-1.56641c-3.5528,0 -5.98299,0.8047 -7.97461,1.56641c-1.99162,0.76171 -3.49761,1.43359 -5.52539,1.43359c-1.59375,0 -4.20891,-1.07304 -7.01562,-3.51953c-2.80671,-2.44649 -5.83042,-6.2202 -8.4668,-11.43164c-2.982,-5.89426 -5.01758,-14.70038 -5.01758,-23.54883c0,-10.84753 8.57017,-18.5 17.5,-18.5zM34.49023,31.05273c-0.01174,0.00024 -0.02346,0.00089 -0.03516,0.00195c-0.35282,0.03169 -0.69947,0.08264 -1.04297,0.14453c-0.17845,0.02865 -0.32755,0.15137 -0.38999,0.32098c-0.06244,0.16961 -0.02849,0.35971 0.08879,0.49723c0.11728,0.13752 0.29964,0.20105 0.47698,0.16616c0.3225,-0.05811 0.64185,-0.1045 0.95703,-0.13281c0.26864,-0.02372 0.47007,-0.25619 0.45531,-0.52547c-0.01476,-0.26928 -0.24038,-0.47835 -0.51,-0.47258zM31.51172,31.72266c-0.06143,-0.00006 -0.12234,0.01119 -0.17969,0.0332c-1.08037,0.38674 -2.13235,0.91176 -3.11523,1.58398c-0.14863,0.10062 -0.23194,0.27317 -0.21828,0.45214c0.01366,0.17896 0.12218,0.33688 0.28435,0.41378c0.16218,0.0769 0.35313,0.06099 0.50033,-0.0417c0.90912,-0.62177 1.88114,-1.10753 2.88477,-1.4668c0.23261,-0.07725 0.37493,-0.31171 0.33613,-0.55372c-0.0388,-0.24201 -0.24729,-0.42022 -0.49238,-0.42089zM26.41211,34.99609c-0.12923,0.00616 -0.25104,0.06216 -0.33984,0.15625c-1.59931,1.64494 -2.84922,3.74244 -3.51953,6.2168c-0.05253,0.17424 -0.00625,0.36325 0.12082,0.49352c0.12708,0.13026 0.31489,0.18121 0.49037,0.13301c0.17548,-0.04819 0.31093,-0.18792 0.35365,-0.36481c0.62569,-2.30964 1.78679,-4.25615 3.27148,-5.7832c0.14487,-0.14619 0.18538,-0.3662 0.10207,-0.55439c-0.08331,-0.18819 -0.27341,-0.30613 -0.47902,-0.29717zM22.51563,46.99414c-0.27552,0.01474 -0.48703,0.24985 -0.47266,0.52539c0.26943,7.20386 1.93758,14.57403 4.54297,19.72266c2.18859,4.32465 4.52174,7.32691 6.5625,9.33398c0.19686,0.19416 0.51385,0.19198 0.70801,-0.00488c0.19416,-0.19686 0.19198,-0.51385 -0.00488,-0.70801c-1.95724,-1.92493 -4.22964,-4.83691 -6.37305,-9.07227c-2.50861,-4.95737 -4.17293,-12.23641 -4.4375,-19.31055c-0.00352,-0.13473 -0.06129,-0.26234 -0.1602,-0.3539c-0.09891,-0.09156 -0.23059,-0.13931 -0.3652,-0.13243z"></path></g></g></svg>